<svg xmlns="http://www.w3.org/2000/svg" width="512" height="512" viewBox="0 0 591.704 591.704"><path d="M590.045 126.94l-81.6-122.4c-2.04-2.856-5.1-4.488-8.568-4.488h-408c-3.468 0-6.528 1.632-8.568 4.488l-81.6 122.4c-2.244 3.264-2.244 7.752-.204 11.22l285.6 448.8c1.836 2.856 5.1 4.692 8.568 4.692s6.732-1.836 8.568-4.692l285.6-448.8c2.448-3.468 2.448-7.752.204-11.22zm-289.068 10.812h147.9l-147.9 414.324V137.752zm0-10.2v-107.1h189.924l-38.352 107.1H300.977zm-10.2 0H139.205l-38.352-107.1h189.924v107.1zm0 10.2v414.324l-147.9-414.324h147.9zm-22.644 381.072L25.577 137.752h106.284l136.272 381.072zm191.556-381.072h106.284L323.621 518.824l136.068-381.072zm106.08-10.2H463.361l35.7-99.96 66.708 99.96zM92.693 27.592l35.7 99.96H25.985l66.708-99.96z" data-original="#000000" xmlns="http://www.w3.org/2000/svg"/></svg>